<svg width="800" height="467" viewBox="0 0 800 467" fill="none" xmlns="http://www.w3.org/2000/svg">
<rect width="569.735" height="466.706" rx="20" fill="#00B0FF" fill-opacity="0.5"/>
<g clip-path="url(#clip0_122_11)">
<path d="M188.197 256.507C188.204 255.476 187.999 254.455 187.594 253.508C187.189 252.56 186.593 251.706 185.843 251C185.093 250.293 184.205 249.748 183.235 249.399C182.266 249.051 181.234 248.906 180.206 248.974C179.178 249.042 178.175 249.321 177.259 249.794C176.343 250.267 175.535 250.924 174.885 251.723C174.234 252.523 173.756 253.448 173.479 254.44C173.202 255.433 173.133 256.472 173.275 257.493L151.736 285.699C150.817 287.538 150.46 289.606 150.711 291.646C150.962 293.686 151.81 295.606 153.147 297.167L154.837 299.138L162.589 297.587L171.376 289.834L170.342 281.048L181.196 263.992L181.182 263.979C183.082 263.858 184.865 263.019 186.168 261.631C187.471 260.243 188.196 258.411 188.197 256.507Z" fill="#FFB9B9"/>
<path d="M39.244 394.407L35.728 381.349L84.4222 361.574L89.6113 380.847L39.244 394.407Z" fill="#FFB8B8"/>
<path d="M27.4826 401.145L16.1463 359.04L16.6789 358.897C21.0253 357.727 25.6585 358.331 29.5594 360.577C33.4603 362.823 36.3093 366.526 37.4799 370.872L37.4802 370.873L44.404 396.59L27.4826 401.145Z" fill="#2F2E41"/>
<path d="M106.318 392.32L95.3817 384.367L120.855 338.397L136.997 350.135L106.318 392.32Z" fill="#FFB8B8"/>
<path d="M101.398 404.951L66.1329 379.305L66.4572 378.859C69.1047 375.219 73.0897 372.779 77.5358 372.077C81.9818 371.375 86.5247 372.467 90.1653 375.114L90.1662 375.115L111.705 390.779L101.398 404.951Z" fill="#2F2E41"/>
<path d="M199.286 328.081L171.764 301.345C169.362 299.012 166.199 297.624 162.855 297.438C159.512 297.251 156.213 298.278 153.566 300.329L101.601 358.059L106.253 365.294L155.87 331.699L189.466 375.631L221.51 359.609L199.286 328.081Z" fill="#2F2E41"/>
<path d="M187.398 333.767L167.241 332.216L152.643 328.677C151.819 327.391 150.621 326.387 149.21 325.8C147.799 325.213 146.243 325.072 144.749 325.394C143.256 325.716 141.896 326.487 140.853 327.603C139.809 328.719 139.132 330.127 138.911 331.639C138.69 333.151 138.936 334.694 139.616 336.062C140.297 337.43 141.379 338.558 142.717 339.294C144.056 340.03 145.588 340.34 147.108 340.182C148.628 340.023 150.063 339.404 151.221 338.408L151.219 338.418L160.005 342.036L197.735 354.958L202.387 351.34L187.398 333.767Z" fill="#FFB9B9"/>
<path d="M235.982 389.587L224.612 396.823H211.173L148.635 373.564L57.1518 390.104L54.5676 370.463L138.298 333.767L211.691 358.059L235.982 389.587Z" fill="#2F2E41"/>
<path d="M211.69 263.992C222.823 263.992 231.848 254.967 231.848 243.834C231.848 232.702 222.823 223.677 211.69 223.677C200.558 223.677 191.533 232.702 191.533 243.834C191.533 254.967 200.558 263.992 211.69 263.992Z" fill="#FFB9B9"/>
<path d="M263.846 324.313C263.846 336.479 261.929 348.568 258.166 360.136L256.657 364.778L249.421 397.856L241.668 399.924L235.982 392.688L224.612 384.418L216.342 370.98L209.251 359.165L207.039 355.474L199.286 316.711L169.825 300.171L160.005 298.621L162.073 292.935L170.859 281.048L179.646 280.014L182.23 277.947L184.297 278.98L195.694 283.371L232.644 267.76L238.05 268.643L256.657 284.149C261.413 297.006 263.847 310.605 263.846 324.313Z" fill="#CCCCCC"/>
<path opacity="0.1" d="M258.207 319.812L238.567 332.733L209.251 359.164L207.039 355.474L200.836 324.464H202.387L218.41 295.003L258.207 319.812Z" fill="black"/>
<path d="M218.41 291.902L202.387 321.362L193.084 331.699L184.815 333.767L207.039 358.059L238.567 329.632L258.207 316.71L218.41 291.902Z" fill="#CCCCCC"/>
<path d="M196.012 228.847L193.828 229.687C193.497 229.462 193.213 229.175 192.992 228.841C192.772 228.506 192.62 228.132 192.544 227.739C192.468 227.346 192.471 226.941 192.551 226.549C192.632 226.157 192.789 225.785 193.013 225.453C193.025 225.436 193.037 225.418 193.049 225.401L189.013 225.212C191.604 221.762 194.898 218.901 198.677 216.818C202.456 214.736 206.635 213.48 210.936 213.133C215.237 212.787 219.562 213.357 223.626 214.807C227.69 216.258 231.4 218.554 234.51 221.545C234.694 220.912 236.697 222.144 237.514 223.392C237.789 222.362 239.667 227.34 240.332 230.859C240.639 229.688 241.822 231.579 240.786 233.394C241.442 233.298 241.739 234.977 241.23 235.913C241.949 235.576 241.827 237.58 241.049 238.92C242.074 238.829 240.961 259.934 225.584 258.397C224.513 253.478 224.815 253.783 223.554 247.458C222.968 246.836 222.325 246.268 221.684 245.702L218.214 242.639C214.18 239.078 210.51 234.683 205.135 233.352C201.441 232.437 199.106 232.231 201.119 228.068C199.3 228.827 197.602 229.956 195.767 230.661C195.792 230.079 196.048 229.428 196.012 228.847Z" fill="#2F2E41"/>
<path d="M221.769 249.778C223.767 249.778 225.387 248.158 225.387 246.16C225.387 244.162 223.767 242.542 221.769 242.542C219.771 242.542 218.151 244.162 218.151 246.16C218.151 248.158 219.771 249.778 221.769 249.778Z" fill="#FFB9B9"/>
<path d="M53.0504 160.712L51.9463 177.29L68.525 178.394L69.6291 161.816L53.0504 160.712Z" fill="#E6E6E6"/>
<path d="M42.3538 169.515L62.4851 170.856L61.1444 190.987L41.0131 189.646L42.3538 169.515ZM61.5515 171.673L43.1708 170.448L41.9467 188.829L60.3274 190.053L61.5515 171.673Z" fill="#CCCCCC"/>
<path d="M146.739 111.551L130.495 115.041L133.985 131.286L150.23 127.795L146.739 111.551Z" fill="#E6E6E6"/>
<path d="M135.337 103.683L139.576 123.408L119.85 127.647L115.612 107.921L135.337 103.683ZM138.534 122.735L134.664 104.725L116.654 108.594L120.524 126.605L138.534 122.735Z" fill="#CCCCCC"/>
<path d="M129.67 189.564L117.543 200.922L128.902 213.049L141.029 201.69L129.67 189.564Z" fill="#E6E6E6"/>
<path d="M141.901 187.864L127.175 201.657L113.383 186.932L128.108 173.139L141.901 187.864ZM127.216 200.417L140.661 187.824L128.067 174.379L114.623 186.972L127.216 200.417Z" fill="#CCCCCC"/>
<path d="M756.784 69.1985H265.18C263.403 69.1985 261.643 69.5485 260.002 70.2285C258.36 70.9085 256.868 71.9051 255.612 73.1616C254.355 74.4181 253.359 75.9097 252.679 77.5514C251.999 79.193 251.649 80.9526 251.649 82.7295V356.642C251.649 358.419 251.999 360.179 252.679 361.82C253.359 363.462 254.355 364.954 255.612 366.21C256.868 367.467 258.36 368.463 260.002 369.143C261.643 369.823 263.403 370.173 265.18 370.173H756.784C760.373 370.173 763.814 368.748 766.352 366.21C768.889 363.672 770.315 360.231 770.315 356.642V82.7295C770.315 79.1408 768.889 75.6992 766.352 73.1616C763.814 70.6241 760.373 69.1985 756.784 69.1985Z" fill="#3F3D56"/>
<path d="M752.174 93.1116H269.79V365.226H752.174V93.1116Z" fill="white"/>
<path d="M510.57 85.6902C513.302 85.6902 515.517 83.4751 515.517 80.7427C515.517 78.0102 513.302 75.7952 510.57 75.7952C507.837 75.7952 505.622 78.0102 505.622 80.7427C505.622 83.4751 507.837 85.6902 510.57 85.6902Z" fill="white"/>
<path d="M614.22 365.226H269.79V93.1121L614.22 365.226Z" fill="#F2F2F2"/>
<path d="M345.268 344.863C370.877 344.863 391.637 324.103 391.637 298.495C391.637 272.886 370.877 252.127 345.268 252.127C319.66 252.127 298.9 272.886 298.9 298.495C298.9 324.103 319.66 344.863 345.268 344.863Z" fill="#6C63FF"/>
<path d="M355.591 333.345C344.183 333.345 333.032 329.962 323.547 323.625C314.062 317.287 306.669 308.279 302.303 297.74C297.938 287.201 296.796 275.604 299.021 264.415C301.247 253.227 306.74 242.95 314.806 234.883C322.873 226.817 333.15 221.324 344.338 219.098C355.527 216.873 367.124 218.015 377.663 222.38C388.202 226.746 397.21 234.139 403.548 243.624C409.885 253.109 413.268 264.26 413.268 275.668C413.268 283.242 411.776 290.742 408.878 297.74C405.979 304.738 401.731 311.096 396.375 316.452C391.019 321.808 384.661 326.056 377.663 328.955C370.665 331.853 363.165 333.345 355.591 333.345ZM355.591 218.744C344.332 218.744 333.326 222.082 323.965 228.337C314.604 234.592 307.308 243.482 303 253.884C298.692 264.285 297.564 275.731 299.761 286.773C301.957 297.815 307.378 307.958 315.339 315.919C323.3 323.88 333.443 329.301 344.485 331.497C355.527 333.694 366.973 332.567 377.374 328.258C387.776 323.95 396.666 316.654 402.921 307.293C409.176 297.932 412.514 286.926 412.514 275.668C412.514 268.192 411.042 260.79 408.181 253.884C405.32 246.978 401.127 240.702 395.842 235.417C390.556 230.131 384.281 225.938 377.374 223.077C370.468 220.216 363.066 218.744 355.591 218.744Z" fill="#3F3D56"/>
<path d="M640.503 234.483H595.443V243.898H640.503V234.483Z" fill="#3F3D56"/>
<path d="M683.134 183.474H552.812V187.509H683.134V183.474Z" fill="#3F3D56"/>
<path d="M683.134 199.327H552.812V203.362H683.134V199.327Z" fill="#3F3D56"/>
<path d="M683.134 215.181H552.812V219.216H683.134V215.181Z" fill="#3F3D56"/>
<path d="M718.045 109.396H699.214V128.228H718.045V109.396Z" fill="#6C63FF"/>
<path d="M726.788 136.971H703.922V114.104H726.788V136.971ZM704.916 135.976H725.794V115.098H704.916L704.916 135.976Z" fill="#CCCCCC"/>
<path d="M783.859 360.278H736.781V356.886C736.781 356.798 736.764 356.71 736.73 356.629C736.697 356.547 736.647 356.473 736.585 356.411C736.522 356.348 736.448 356.299 736.366 356.265C736.285 356.231 736.197 356.214 736.109 356.214H719.968C719.88 356.214 719.792 356.231 719.711 356.265C719.629 356.299 719.555 356.348 719.492 356.411C719.43 356.473 719.38 356.547 719.347 356.629C719.313 356.71 719.295 356.798 719.295 356.886V360.278H709.208V356.886C709.208 356.798 709.19 356.71 709.156 356.629C709.123 356.547 709.073 356.473 709.011 356.411C708.948 356.348 708.874 356.299 708.792 356.265C708.711 356.231 708.623 356.214 708.535 356.214H692.394C692.306 356.214 692.218 356.231 692.137 356.265C692.055 356.299 691.981 356.348 691.919 356.411C691.856 356.473 691.807 356.547 691.773 356.629C691.739 356.71 691.722 356.798 691.722 356.886V360.278H681.634V356.886C681.634 356.798 681.616 356.71 681.582 356.629C681.549 356.547 681.499 356.473 681.437 356.411C681.374 356.348 681.3 356.299 681.218 356.265C681.137 356.231 681.049 356.214 680.961 356.214H664.82C664.732 356.214 664.644 356.231 664.563 356.265C664.481 356.299 664.407 356.348 664.345 356.411C664.282 356.473 664.233 356.547 664.199 356.629C664.165 356.71 664.148 356.798 664.148 356.886V360.278H654.06V356.886C654.06 356.798 654.042 356.71 654.008 356.629C653.975 356.547 653.925 356.473 653.863 356.411C653.8 356.348 653.726 356.299 653.644 356.265C653.563 356.231 653.475 356.214 653.387 356.214H637.246C637.158 356.214 637.07 356.231 636.989 356.265C636.907 356.299 636.833 356.348 636.771 356.411C636.708 356.473 636.659 356.547 636.625 356.629C636.591 356.71 636.574 356.798 636.574 356.886V360.278H626.486V356.886C626.486 356.798 626.468 356.71 626.434 356.629C626.401 356.547 626.351 356.473 626.289 356.411C626.226 356.348 626.152 356.299 626.07 356.265C625.989 356.231 625.901 356.214 625.813 356.214H609.672C609.584 356.214 609.496 356.231 609.415 356.265C609.333 356.299 609.259 356.348 609.197 356.411C609.134 356.473 609.085 356.547 609.051 356.629C609.017 356.71 609 356.798 609 356.886V360.278H598.912V356.886C598.912 356.798 598.894 356.71 598.86 356.629C598.827 356.547 598.777 356.473 598.715 356.411C598.652 356.348 598.578 356.299 598.496 356.265C598.415 356.231 598.327 356.214 598.239 356.214H582.098C582.01 356.214 581.922 356.231 581.841 356.265C581.759 356.299 581.685 356.348 581.623 356.411C581.56 356.473 581.511 356.547 581.477 356.629C581.443 356.71 581.426 356.798 581.426 356.886V360.278H571.338V356.886C571.338 356.798 571.32 356.71 571.286 356.629C571.253 356.547 571.203 356.473 571.141 356.411C571.078 356.348 571.004 356.299 570.922 356.265C570.841 356.231 570.753 356.214 570.665 356.214H444.228C444.14 356.214 444.052 356.231 443.971 356.265C443.889 356.299 443.815 356.348 443.753 356.411C443.69 356.473 443.641 356.547 443.607 356.629C443.573 356.71 443.556 356.798 443.556 356.886V360.278H433.468V356.886C433.468 356.798 433.45 356.71 433.416 356.629C433.383 356.547 433.333 356.473 433.271 356.411C433.208 356.348 433.134 356.299 433.052 356.265C432.971 356.231 432.883 356.214 432.795 356.214H416.654C416.566 356.214 416.478 356.231 416.397 356.265C416.315 356.299 416.241 356.348 416.179 356.411C416.116 356.473 416.067 356.547 416.033 356.629C415.999 356.71 415.982 356.798 415.982 356.886V360.278H405.894V356.886C405.894 356.798 405.876 356.71 405.842 356.629C405.809 356.547 405.759 356.473 405.697 356.411C405.634 356.348 405.56 356.299 405.479 356.265C405.397 356.231 405.309 356.214 405.221 356.214H389.08C388.992 356.214 388.904 356.231 388.823 356.265C388.741 356.299 388.667 356.348 388.605 356.411C388.542 356.473 388.493 356.547 388.459 356.629C388.425 356.71 388.408 356.798 388.408 356.886V360.278H378.32V356.886C378.32 356.798 378.302 356.71 378.268 356.629C378.235 356.547 378.185 356.473 378.123 356.411C378.06 356.348 377.986 356.299 377.904 356.265C377.823 356.231 377.735 356.214 377.647 356.214H361.506C361.418 356.214 361.33 356.231 361.249 356.265C361.167 356.299 361.093 356.348 361.031 356.411C360.968 356.473 360.919 356.547 360.885 356.629C360.851 356.71 360.834 356.798 360.834 356.886V360.278H350.746V356.886C350.746 356.798 350.728 356.71 350.694 356.629C350.661 356.547 350.611 356.473 350.549 356.411C350.486 356.348 350.412 356.299 350.33 356.265C350.249 356.231 350.161 356.214 350.073 356.214H333.932C333.844 356.214 333.756 356.231 333.675 356.265C333.593 356.299 333.519 356.348 333.457 356.411C333.394 356.473 333.345 356.547 333.311 356.629C333.277 356.71 333.26 356.798 333.26 356.886V360.278H323.172V356.886C323.172 356.798 323.154 356.71 323.12 356.629C323.087 356.547 323.037 356.473 322.975 356.411C322.912 356.348 322.838 356.299 322.756 356.265C322.675 356.231 322.587 356.214 322.499 356.214H306.358C306.18 356.214 306.009 356.284 305.883 356.411C305.757 356.537 305.686 356.708 305.686 356.886V360.278H295.598V356.886C295.598 356.798 295.58 356.71 295.546 356.629C295.513 356.547 295.463 356.473 295.401 356.411C295.338 356.348 295.264 356.299 295.182 356.265C295.101 356.231 295.013 356.214 294.925 356.214H278.784C278.606 356.214 278.435 356.285 278.309 356.411C278.183 356.537 278.112 356.708 278.112 356.886V360.278H247.175C242.894 360.278 238.789 361.979 235.762 365.006C232.735 368.033 231.034 372.138 231.034 376.419V383.717C231.034 387.998 232.735 392.104 235.762 395.131C238.789 398.158 242.894 399.858 247.175 399.858H783.859C788.14 399.858 792.245 398.158 795.272 395.131C798.299 392.104 800 387.998 800 383.717V376.419C800 374.299 799.582 372.2 798.771 370.242C797.96 368.284 796.771 366.504 795.272 365.006C793.774 363.507 791.994 362.318 790.036 361.507C788.078 360.696 785.979 360.278 783.859 360.278Z" fill="#3F3D56"/>
</g>
<defs>
<clipPath id="clip0_122_11">
<rect width="783.854" height="335.752" fill="white" transform="translate(16.1463 69.1985)"/>
</clipPath>
</defs>
</svg>
