<svg width="1041" height="607" viewBox="0 0 1041 607" fill="none" xmlns="http://www.w3.org/2000/svg">
<rect width="741" height="607" rx="20" fill="#00B0FF" fill-opacity="0.5"/>
<g clip-path="url(#clip0_122_11)">
<path d="M244.77 333.614C244.779 332.274 244.512 330.946 243.986 329.714C243.459 328.481 242.683 327.371 241.708 326.451C240.733 325.532 239.578 324.824 238.317 324.37C237.056 323.917 235.714 323.729 234.377 323.817C233.04 323.905 231.735 324.269 230.544 324.884C229.353 325.499 228.302 326.353 227.456 327.393C226.61 328.432 225.988 329.635 225.628 330.926C225.267 332.217 225.177 333.569 225.363 334.896L197.348 371.582C196.153 373.973 195.689 376.663 196.016 379.316C196.343 381.969 197.445 384.467 199.184 386.497L201.382 389.06L211.465 387.043L222.893 376.96L221.548 365.532L235.665 343.349L235.647 343.333C238.118 343.176 240.436 342.084 242.131 340.278C243.825 338.473 244.769 336.09 244.77 333.614Z" fill="#FFB9B9"/>
<path d="M51.041 512.968L46.468 495.984L109.8 470.265L116.549 495.331L51.041 512.968Z" fill="#FFB8B8"/>
<path d="M35.7441 521.732L21 466.97L21.6926 466.783C27.3456 465.261 33.3716 466.047 38.4451 468.968C43.5186 471.889 47.2241 476.706 48.7466 482.358L48.747 482.36L57.7521 515.807L35.7441 521.732Z" fill="#2F2E41"/>
<path d="M138.278 510.254L124.054 499.91L157.185 440.121L178.179 455.388L138.278 510.254Z" fill="#FFB8B8"/>
<path d="M131.879 526.681L86.0128 493.326L86.4347 492.746C89.878 488.011 95.0609 484.838 100.843 483.925C106.626 483.012 112.535 484.433 117.269 487.875L117.271 487.876L145.284 508.249L131.879 526.681Z" fill="#2F2E41"/>
<path d="M259.192 426.704L223.397 391.932C220.273 388.897 216.159 387.092 211.81 386.849C207.462 386.606 203.172 387.942 199.729 390.61L132.143 465.693L138.193 475.104L202.726 431.41L246.42 488.548L288.098 467.71L259.192 426.704Z" fill="#2F2E41"/>
<path d="M243.731 434.099L217.515 432.082L198.529 427.479C197.456 425.806 195.898 424.501 194.064 423.737C192.229 422.974 190.205 422.79 188.262 423.209C186.319 423.628 184.551 424.63 183.194 426.082C181.837 427.534 180.956 429.365 180.668 431.331C180.381 433.298 180.701 435.305 181.586 437.084C182.47 438.864 183.878 440.33 185.619 441.288C187.361 442.245 189.353 442.648 191.329 442.442C193.306 442.236 195.172 441.431 196.679 440.135L196.676 440.149L208.104 444.854L257.176 461.66L263.226 456.954L243.731 434.099Z" fill="#FFB9B9"/>
<path d="M306.92 506.699L292.131 516.11H274.653L193.315 485.86L74.332 507.371L70.971 481.826L179.871 434.099L275.326 465.693L306.92 506.699Z" fill="#2F2E41"/>
<path d="M275.326 343.349C289.805 343.349 301.542 331.611 301.542 317.132C301.542 302.653 289.805 290.916 275.326 290.916C260.847 290.916 249.109 302.653 249.109 317.132C249.109 331.611 260.847 343.349 275.326 343.349Z" fill="#FFB9B9"/>
<path d="M343.159 421.804C343.159 437.626 340.666 453.349 335.772 468.395L333.809 474.432L324.398 517.454L314.315 520.143L306.92 510.732L292.131 499.976L281.376 482.499L272.153 467.132L269.276 462.332L259.192 411.915L220.876 390.404L208.104 388.388L210.793 380.993L222.22 365.532L233.648 364.188L237.009 361.499L239.698 362.843L254.521 368.554L302.578 348.25L309.609 349.399L333.809 369.566C339.995 386.287 343.161 403.975 343.159 421.804Z" fill="#CCCCCC"/>
<path opacity="0.1" d="M335.825 415.949L310.281 432.754L272.153 467.131L269.276 462.332L261.209 421.999H263.226L284.065 383.683L335.825 415.949Z" fill="black"/>
<path d="M284.065 379.649L263.226 417.965L251.126 431.41L240.371 434.099L269.276 465.693L310.281 428.721L335.825 411.915L284.065 379.649Z" fill="#CCCCCC"/>
<path d="M254.935 297.639L252.094 298.732C251.663 298.44 251.293 298.066 251.007 297.631C250.72 297.197 250.522 296.71 250.423 296.198C250.325 295.687 250.328 295.161 250.433 294.651C250.538 294.141 250.742 293.657 251.034 293.225C251.049 293.203 251.065 293.18 251.08 293.158L245.831 292.912C249.201 288.425 253.485 284.704 258.4 281.995C263.316 279.287 268.75 277.653 274.344 277.203C279.938 276.752 285.564 277.494 290.849 279.38C296.135 281.266 300.96 284.253 305.005 288.143C305.244 287.32 307.849 288.921 308.912 290.545C309.27 289.206 311.713 295.68 312.577 300.257C312.977 298.733 314.514 301.193 313.167 303.554C314.021 303.429 314.406 305.613 313.746 306.83C314.68 306.391 314.522 308.999 313.509 310.741C314.842 310.623 313.396 338.072 293.396 336.072C292.003 329.675 292.396 330.072 290.756 321.846C289.993 321.036 289.157 320.298 288.323 319.562L283.81 315.578C278.563 310.946 273.79 305.23 266.799 303.499C261.996 302.309 258.958 302.04 261.576 296.627C259.211 297.614 257.002 299.082 254.615 299.999C254.647 299.242 254.981 298.396 254.935 297.639Z" fill="#2F2E41"/>
<path d="M288.434 324.863C291.033 324.863 293.14 322.756 293.14 320.157C293.14 317.559 291.033 315.452 288.434 315.452C285.835 315.452 283.729 317.559 283.729 320.157C283.729 322.756 285.835 324.863 288.434 324.863Z" fill="#FFB9B9"/>
<path d="M68.9976 209.022L67.5616 230.585L89.124 232.021L90.56 210.458L68.9976 209.022Z" fill="#E6E6E6"/>
<path d="M55.0857 220.472L81.2685 222.216L79.5248 248.398L53.342 246.655L55.0857 220.472ZM80.0543 223.278L56.1482 221.686L54.5562 245.592L78.4622 247.184L80.0543 223.278Z" fill="#CCCCCC"/>
<path d="M190.85 145.084L169.722 149.624L174.262 170.751L195.39 166.212L190.85 145.084Z" fill="#E6E6E6"/>
<path d="M176.021 134.85L181.533 160.505L155.878 166.018L150.365 140.363L176.021 134.85ZM180.178 159.63L175.145 136.205L151.72 141.238L156.754 164.663L180.178 159.63Z" fill="#CCCCCC"/>
<path d="M168.65 246.547L152.878 261.32L167.651 277.092L183.423 262.319L168.65 246.547Z" fill="#E6E6E6"/>
<path d="M184.557 244.337L165.405 262.276L147.466 243.125L166.618 225.186L184.557 244.337ZM165.458 260.663L182.944 244.285L166.565 226.798L149.079 243.177L165.458 260.663Z" fill="#CCCCCC"/>
<path d="M984.277 90H344.894C342.583 90 340.295 90.4552 338.16 91.3396C336.025 92.224 334.084 93.5203 332.45 95.1545C330.816 96.7886 329.52 98.7287 328.635 100.864C327.751 102.999 327.296 105.287 327.296 107.598V463.851C327.296 466.162 327.751 468.45 328.635 470.585C329.52 472.721 330.816 474.661 332.45 476.295C334.084 477.929 336.025 479.225 338.16 480.11C340.295 480.994 342.583 481.449 344.894 481.449H984.277C988.945 481.449 993.421 479.595 996.721 476.295C1000.02 472.994 1001.88 468.518 1001.88 463.851V107.598C1001.88 102.931 1000.02 98.4548 996.721 95.1545C993.421 91.8541 988.945 90 984.277 90Z" fill="#3F3D56"/>
<path d="M978.281 121.102H350.89V475.015H978.281V121.102Z" fill="white"/>
<path d="M664.049 111.449C667.603 111.449 670.484 108.568 670.484 105.015C670.484 101.461 667.603 98.5798 664.049 98.5798C660.496 98.5798 657.615 101.461 657.615 105.015C657.615 108.568 660.496 111.449 664.049 111.449Z" fill="white"/>
<path d="M798.858 475.015H350.89V121.102L798.858 475.015Z" fill="#F2F2F2"/>
<path d="M449.058 448.531C482.365 448.531 509.365 421.531 509.365 388.224C509.365 354.918 482.365 327.917 449.058 327.917C415.751 327.917 388.751 354.918 388.751 388.224C388.751 421.531 415.751 448.531 449.058 448.531Z" fill="#6C63FF"/>
<path d="M462.483 433.551C447.646 433.551 433.143 429.151 420.806 420.908C408.47 412.665 398.855 400.949 393.177 387.242C387.5 373.535 386.014 358.452 388.909 343.9C391.803 329.348 398.948 315.982 409.439 305.491C419.93 295 433.296 287.855 447.848 284.96C462.4 282.066 477.483 283.552 491.19 289.229C504.898 294.907 516.613 304.522 524.856 316.858C533.099 329.195 537.499 343.698 537.499 358.535C537.499 368.386 535.558 378.141 531.788 387.242C528.019 396.343 522.493 404.613 515.527 411.579C508.561 418.545 500.292 424.07 491.19 427.84C482.089 431.61 472.334 433.551 462.483 433.551ZM462.483 284.5C447.84 284.5 433.526 288.842 421.351 296.977C409.176 305.112 399.687 316.675 394.083 330.203C388.48 343.731 387.014 358.617 389.87 372.978C392.727 387.34 399.778 400.532 410.132 410.886C420.486 421.24 433.678 428.291 448.039 431.147C462.401 434.004 477.287 432.538 490.815 426.934C504.343 421.331 515.906 411.842 524.041 399.667C532.176 387.492 536.518 373.178 536.518 358.535C536.518 348.812 534.603 339.185 530.883 330.203C527.162 321.22 521.709 313.059 514.834 306.184C507.959 299.309 499.797 293.856 490.815 290.135C481.833 286.415 472.205 284.5 462.483 284.5Z" fill="#3F3D56"/>
<path d="M833.042 304.969H774.437V317.215H833.042V304.969Z" fill="#3F3D56"/>
<path d="M888.488 238.627H718.991V243.875H888.488V238.627Z" fill="#3F3D56"/>
<path d="M888.488 259.246H718.991V264.494H888.488V259.246Z" fill="#3F3D56"/>
<path d="M888.488 279.865H718.991V285.114H888.488V279.865Z" fill="#3F3D56"/>
<path d="M933.893 142.282H909.401V166.773H933.893V142.282Z" fill="#6C63FF"/>
<path d="M945.264 178.145H915.524V148.405H945.264V178.145ZM916.818 176.852H943.971V149.698H916.817L916.818 176.852Z" fill="#CCCCCC"/>
<path d="M1019.49 468.58H958.262V464.168C958.262 464.053 958.239 463.94 958.195 463.833C958.151 463.727 958.087 463.631 958.006 463.55C957.925 463.468 957.828 463.404 957.722 463.36C957.616 463.316 957.502 463.293 957.387 463.293H936.394C936.279 463.293 936.166 463.316 936.06 463.36C935.953 463.404 935.857 463.468 935.776 463.55C935.694 463.631 935.63 463.727 935.586 463.833C935.542 463.939 935.52 464.053 935.52 464.168V468.58H922.399V464.168C922.399 464.053 922.376 463.94 922.332 463.833C922.289 463.727 922.224 463.631 922.143 463.55C922.062 463.468 921.965 463.404 921.859 463.36C921.753 463.316 921.639 463.293 921.524 463.293H900.532C900.417 463.293 900.303 463.316 900.197 463.36C900.091 463.404 899.994 463.468 899.913 463.55C899.832 463.631 899.767 463.727 899.723 463.833C899.679 463.94 899.657 464.053 899.657 464.168V468.58H886.536V464.168C886.536 464.053 886.514 463.94 886.47 463.833C886.426 463.727 886.361 463.631 886.28 463.55C886.199 463.468 886.102 463.404 885.996 463.36C885.89 463.316 885.776 463.293 885.662 463.293H864.669C864.554 463.293 864.44 463.316 864.334 463.36C864.228 463.404 864.131 463.468 864.05 463.55C863.969 463.631 863.904 463.727 863.86 463.833C863.816 463.94 863.794 464.053 863.794 464.168V468.58H850.673V464.168C850.673 464.053 850.651 463.94 850.607 463.833C850.563 463.727 850.498 463.631 850.417 463.55C850.336 463.468 850.24 463.404 850.133 463.36C850.027 463.316 849.914 463.293 849.799 463.293H828.806C828.691 463.293 828.577 463.316 828.471 463.36C828.365 463.404 828.268 463.468 828.187 463.55C828.106 463.631 828.042 463.727 827.998 463.833C827.954 463.939 827.931 464.053 827.931 464.168V468.58H814.811V464.168C814.811 464.053 814.788 463.94 814.744 463.833C814.7 463.727 814.636 463.631 814.554 463.55C814.473 463.468 814.377 463.404 814.271 463.36C814.164 463.316 814.051 463.293 813.936 463.293H792.943C792.828 463.293 792.714 463.316 792.608 463.36C792.502 463.404 792.406 463.468 792.324 463.55C792.243 463.631 792.179 463.727 792.135 463.833C792.091 463.94 792.068 464.053 792.068 464.168V468.58H778.948V464.168C778.948 464.053 778.925 463.94 778.881 463.833C778.837 463.727 778.773 463.631 778.691 463.55C778.61 463.468 778.514 463.404 778.408 463.36C778.301 463.316 778.188 463.293 778.073 463.293H757.08C756.965 463.293 756.851 463.316 756.745 463.36C756.639 463.404 756.543 463.468 756.461 463.55C756.38 463.631 756.316 463.727 756.272 463.833C756.228 463.94 756.205 464.053 756.205 464.168V468.58H743.085V464.168C743.085 464.053 743.062 463.94 743.018 463.833C742.974 463.727 742.91 463.631 742.829 463.55C742.747 463.468 742.651 463.404 742.545 463.36C742.439 463.316 742.325 463.293 742.21 463.293H577.766C577.651 463.293 577.537 463.316 577.431 463.36C577.325 463.404 577.228 463.468 577.147 463.55C577.066 463.631 577.001 463.727 576.957 463.833C576.913 463.94 576.891 464.053 576.891 464.168V468.58H563.77V464.168C563.77 464.053 563.748 463.94 563.704 463.833C563.66 463.727 563.595 463.631 563.514 463.55C563.433 463.468 563.336 463.404 563.23 463.36C563.124 463.316 563.01 463.293 562.896 463.293H541.903C541.788 463.293 541.674 463.316 541.568 463.36C541.462 463.404 541.365 463.468 541.284 463.55C541.203 463.631 541.139 463.727 541.095 463.833C541.051 463.94 541.028 464.053 541.028 464.168V468.58H527.907V464.168C527.907 464.053 527.885 463.94 527.841 463.833C527.797 463.727 527.732 463.631 527.651 463.55C527.57 463.468 527.474 463.404 527.368 463.36C527.261 463.316 527.148 463.293 527.033 463.293H506.04C505.925 463.293 505.811 463.316 505.705 463.36C505.599 463.404 505.503 463.468 505.421 463.55C505.34 463.631 505.276 463.727 505.232 463.833C505.188 463.94 505.165 464.053 505.165 464.168V468.58H492.045V464.168C492.045 464.053 492.022 463.94 491.978 463.833C491.934 463.727 491.87 463.631 491.788 463.55C491.707 463.468 491.611 463.404 491.505 463.36C491.398 463.316 491.285 463.293 491.17 463.293H470.177C470.062 463.293 469.948 463.316 469.842 463.36C469.736 463.404 469.64 463.468 469.558 463.55C469.477 463.631 469.413 463.727 469.369 463.833C469.325 463.94 469.302 464.053 469.302 464.168V468.58H456.182V464.168C456.182 464.053 456.159 463.94 456.115 463.833C456.071 463.727 456.007 463.631 455.925 463.55C455.844 463.468 455.748 463.404 455.642 463.36C455.536 463.316 455.422 463.293 455.307 463.293H434.314C434.199 463.293 434.085 463.316 433.979 463.36C433.873 463.404 433.777 463.468 433.696 463.55C433.614 463.631 433.55 463.727 433.506 463.833C433.462 463.94 433.439 464.053 433.439 464.168V468.58H420.319V464.168C420.319 464.053 420.296 463.94 420.252 463.833C420.208 463.727 420.144 463.631 420.063 463.55C419.981 463.468 419.885 463.404 419.779 463.36C419.673 463.316 419.559 463.293 419.444 463.293H398.451C398.219 463.293 397.997 463.386 397.833 463.55C397.669 463.714 397.576 463.936 397.576 464.168V468.58H384.456V464.168C384.456 464.053 384.433 463.94 384.389 463.833C384.345 463.727 384.281 463.631 384.2 463.55C384.118 463.468 384.022 463.404 383.916 463.36C383.81 463.316 383.696 463.293 383.581 463.293H362.588C362.356 463.293 362.134 463.386 361.97 463.55C361.806 463.714 361.714 463.936 361.714 464.168V468.58H321.477C315.909 468.58 310.57 470.791 306.633 474.728C302.696 478.665 300.484 484.005 300.484 489.573V499.065C300.484 504.633 302.696 509.972 306.633 513.909C310.57 517.846 315.909 520.058 321.477 520.058H1019.49C1025.06 520.058 1030.4 517.846 1034.34 513.909C1038.27 509.972 1040.48 504.633 1040.48 499.065V489.573C1040.48 486.816 1039.94 484.086 1038.89 481.539C1037.83 478.992 1036.28 476.678 1034.34 474.728C1032.39 472.779 1030.07 471.233 1027.52 470.178C1024.98 469.123 1022.25 468.58 1019.49 468.58Z" fill="#3F3D56"/>
</g>
<defs>
<clipPath id="clip0_122_11">
<rect width="1019.48" height="436.681" fill="white" transform="translate(21 90)"/>
</clipPath>
</defs>
</svg>
