<svg width="698" height="726" viewBox="0 0 698 726" fill="none" xmlns="http://www.w3.org/2000/svg">
<g clip-path="url(#clip0_127_5)">
<path d="M326.143 0.195369C324.642 0.337284 319.865 0.833985 315.567 1.18877C216.428 10.4842 123.566 66.1147 64.7509 151.618C32.0002 199.16 11.0534 253.087 3.13861 310.208C0.341153 330.147 0 336.036 0 363.071C0 390.106 0.341153 395.995 3.13861 415.934C22.1067 552.243 115.378 666.768 241.878 709.201C264.53 716.793 288.411 721.973 315.567 725.095C326.143 726.302 371.857 726.302 382.433 725.095C429.308 719.703 469.018 707.64 508.182 686.849C514.187 683.656 515.346 682.805 514.528 682.095C513.982 681.669 488.395 645.978 457.692 602.836L401.879 524.428L331.942 416.786C293.46 357.607 261.801 309.214 261.528 309.214C261.255 309.144 260.982 356.969 260.846 415.367C260.641 517.616 260.573 521.732 259.345 524.144C257.571 527.621 256.206 529.04 253.341 530.601C251.157 531.737 249.247 531.949 238.944 531.949H227.14L224.001 529.892C221.954 528.544 220.453 526.77 219.43 524.712L217.997 521.519L218.134 379.249L218.338 236.909L220.453 234.142C221.545 232.652 223.865 230.736 225.502 229.813C228.3 228.394 229.392 228.252 241.196 228.252C255.115 228.252 257.434 228.82 261.051 232.935C262.074 234.071 299.942 293.391 345.247 364.845C390.552 436.299 452.506 533.865 482.937 581.762L538.204 668.826L541.001 666.91C565.769 650.164 591.969 626.323 612.712 601.488C656.857 548.766 685.309 484.479 694.861 415.934C697.659 395.995 698 390.106 698 363.071C698 336.036 697.659 330.147 694.861 310.208C675.893 173.899 582.622 59.3738 456.122 16.9413C433.811 9.41982 410.066 4.23994 383.457 1.11781C376.906 0.408241 331.806 -0.372289 326.143 0.195369ZM469.018 219.737C472.293 221.44 474.954 224.704 475.909 228.11C476.455 229.955 476.591 269.407 476.455 358.317L476.25 485.898L454.621 451.413L432.924 416.928V324.186C432.924 264.228 433.197 230.523 433.606 228.891C434.698 224.917 437.086 221.795 440.361 219.95C443.158 218.46 444.182 218.318 454.894 218.318C464.992 218.318 466.766 218.46 469.018 219.737Z" fill="black"/>
</g>
<defs>
<clipPath id="clip0_127_5">
<rect width="698" height="726" fill="white"/>
</clipPath>
</defs>
</svg>
